<?xml version="1.0" encoding="UTF-8"?><svg id="Layer_1" xmlns="http://www.w3.org/2000/svg" width="84.69mm" height="76.46mm" xmlns:xlink="http://www.w3.org/1999/xlink" viewBox="0 0 240.07 216.73"><defs><style>.cls-1{fill:url(#linear-gradient);}.cls-1,.cls-2{stroke-width:0px;}.cls-2{fill:url(#linear-gradient-2);}</style><linearGradient id="linear-gradient" x1="233.03" y1="136.18" x2="11.07" y2="136.18" gradientTransform="translate(0 217.53) scale(1 -1)" gradientUnits="userSpaceOnUse"><stop offset="0" stop-color="#c48809"/><stop offset=".25" stop-color="#c88f2b"/><stop offset=".5" stop-color="#5e4105"/><stop offset=".75" stop-color="#c28828"/><stop offset="1" stop-color="#d8a031"/></linearGradient><linearGradient id="linear-gradient-2" x1="240.07" y1="135.85" x2="11.07" y2="135.85" gradientTransform="translate(0 217.53) scale(1 -1)" gradientUnits="userSpaceOnUse"><stop offset="0" stop-color="#c48809"/><stop offset=".25" stop-color="#c88f2b"/><stop offset=".5" stop-color="#5e4105"/><stop offset=".75" stop-color="#c28828"/><stop offset="1" stop-color="#d8a031"/></linearGradient></defs><path class="cls-1" d="m128.55,124.47c-.15.3-.28.61-.43.91-1.51,7.25-5.6,18.77-16.78,25.5-8.24,4.97-16.47,4.85-20.53,4.85h-2.37c-27.31,0-49.38-33.43-49.38-74.97v-2.71c0-13.57,1.33-29.38,9.97-44.53,6.12-10.74,13.72-17.89,19.11-22.19,5.88-3.75,13.53-6.01,20.31-6.01,7.72,0,15.03,2.7,21.55,7.51,1.64,1.02,3.29,2.23,4.89,3.69.63.58,1.23,1.17,1.79,1.76,1.48,1.57,2.71,3.2,4.05,5.31,3.15,4.9,6.32,11.37,6.8,12.38-.87-11.93-1.73-23.87-2.6-35.8C86.98.09,49.03.04,11.07,0l14.37,1.21c1.23.12,5.96.72,9.65,4.8,2.65,2.93,3.43,6.16,3.68,7.59v134.68c-.72,1.86-1.59,3.38-2.48,4.63-6.21,8.62-17.54,9.7-22.19,9.8h111.45l3-38.24Z"/><path class="cls-2" d="m94.38,56.96v55.5c-.03-2.72.29-8.31,3.56-14.32,3.88-7.09,9.74-8.71,12.14-10,2.41-1.29,10.43-2.23,17.19-2.04,7.95.23,16.47,1.81,19.94,4.08,3.69,2.42,5.06,5.19,6.48,7.08l37.32,55.65c1.42,1.71,4.02,4.37,8.03,6.47,4.52,2.35,8.69,2.84,11,2.93l30.03.38c-3.59-.19-9.16-.96-15.17-3.9-10.67-5.23-33.9-39.41-33.9-39.41l-16.29-25.81s-5.42-6.18-7.49-7.04c-3.45-1.44-6.59-1.86-8.77-1.98,4.51-1.1,9.02-2.2,13.53-3.3,3.96-1.29,10.7-4.03,17.07-9.98,2.78-2.59,11.29-10.79,13.12-23.49,2.34-16.27-7.59-31.2-18.91-39.07C171.91.83,159.88.53,155.05.68h-13.49c3.42.04,8.58.53,14.27,2.87,9.31,3.82,14.41,10.23,16.39,12.78,4.4,5.69,6.2,11.04,6.81,13,1.98,6.52,1.73,11.79,1.57,14.98-.19,3.53-.81,12.62-6.68,22.14-2.13,3.45-5.13,8.3-11.26,12.12-6.16,3.83-12.28,3.98-15.44,4.14,0,0-13.22.64-19.94.68-7.79.04-13.53-.57-16.96-2.11-5.99-2.69-9.19-4.89-12.37-10.79-2.59-4.82-3.56-13.53-3.56-13.53Z"/></svg>