<svg width="30" height="30" viewBox="0 0 30 30" fill="none" xmlns="http://www.w3.org/2000/svg">
<path d="M23.4125 18.3376L18.225 23.5251C18.025 23.7251 17.8375 24.1126 17.7875 24.3876L17.5 26.3751C17.4 27.0876 17.9 27.6001 18.6125 27.4876L20.6 27.2001C20.875 27.1626 21.2625 26.9626 21.4625 26.7626L26.65 21.5751C27.5375 20.6876 27.9625 19.6376 26.65 18.3251C25.35 17.0251 24.3125 17.4376 23.4125 18.3376Z" fill="black"/>
<path d="M22.6748 19.075C23.1123 20.65 24.3498 21.875 25.9248 22.325L22.6748 19.075Z" fill="black"/>
<path d="M2.5377 18.2876C2.5377 18.3251 2.5127 18.3751 2.5127 18.4126C3.6627 20.7126 5.5377 22.6001 7.8377 23.7376C7.8752 23.7376 7.92519 23.7126 7.9627 23.7126C7.53769 22.2626 7.2127 20.7751 6.9752 19.2876C5.4752 19.0376 3.9877 18.7126 2.5377 18.2876Z" fill="black"/>
<path d="M23.8376 8.03755C22.6626 5.57505 20.6751 3.58755 18.2251 2.42505C18.6751 3.91255 19.0501 5.43755 19.3001 6.96255C20.8251 7.21255 22.3501 7.57505 23.8376 8.03755Z" fill="black"/>
<path d="M2.4126 8.0374C3.9126 7.5874 5.4376 7.2124 6.9626 6.9624C7.2126 5.4749 7.5251 3.9999 7.9501 2.5499C7.9126 2.5499 7.8626 2.5249 7.8251 2.5249C5.4751 3.6874 3.5626 5.6499 2.4126 8.0374Z" fill="black"/>
<path d="M17.2751 6.7C16.9751 5.075 16.6001 3.45 16.0626 1.875C16.0376 1.7875 16.0376 1.7125 16.0251 1.6125C15.1001 1.3875 14.1251 1.25 13.1251 1.25C12.1126 1.25 11.1501 1.3875 10.2126 1.625C10.2001 1.7125 10.2126 1.7875 10.1876 1.8875C9.6626 3.4625 9.2751 5.075 8.9751 6.7C11.7376 6.4 14.5126 6.4 17.2751 6.7Z" fill="black"/>
<path d="M6.7 8.9751C5.0625 9.2751 3.4625 9.6626 1.875 10.1876C1.7875 10.2126 1.7125 10.2126 1.625 10.2251C1.3875 11.1501 1.25 12.1251 1.25 13.1251C1.25 14.1376 1.3875 15.1001 1.625 16.0376C1.7125 16.0501 1.7875 16.0376 1.8875 16.0626C3.4625 16.5876 5.075 16.9751 6.7125 17.2751C6.4 14.5126 6.4 11.7376 6.7 8.9751Z" fill="black"/>
<path d="M24.6251 10.2251C24.5376 10.2251 24.4626 10.2126 24.3626 10.1876C22.7876 9.6626 21.1626 9.2751 19.5376 8.9751C19.8501 11.7376 19.8501 14.5126 19.5376 17.2626C21.1626 16.9626 22.7876 16.5876 24.3626 16.0501C24.4501 16.0251 24.5251 16.0376 24.6251 16.0251C24.8501 15.0876 25.0001 14.1251 25.0001 13.1126C25.0001 12.1251 24.8626 11.1626 24.6251 10.2251Z" fill="black"/>
<path d="M8.9751 19.5501C9.2751 21.1876 9.6501 22.8001 10.1876 24.3751C10.2126 24.4626 10.2001 24.5376 10.2126 24.6376C11.1501 24.8626 12.1126 25.0001 13.1251 25.0001C14.1251 25.0001 15.1001 24.8626 16.0251 24.6251C16.0376 24.5376 16.0376 24.4626 16.0626 24.3626C16.5876 22.7876 16.9751 21.1751 17.2751 19.5376C15.9001 19.6876 14.5126 19.8001 13.1251 19.8001C11.7376 19.8001 10.3501 19.7001 8.9751 19.5501Z" fill="black"/>
<path d="M8.6875 8.6875C8.3125 11.6375 8.3125 14.6125 8.6875 17.575C11.6375 17.95 14.6125 17.95 17.575 17.575C17.95 14.625 17.95 11.65 17.575 8.6875C14.6125 8.3125 11.6375 8.3125 8.6875 8.6875Z" fill="black"/>
</svg>
