<?xml version="1.0" encoding="UTF-8"?><svg id="Layer_1" xmlns="http://www.w3.org/2000/svg" width="181.84mm" height="35.28mm" xmlns:xlink="http://www.w3.org/1999/xlink" viewBox="0 0 515.46 100"><defs><style>.cls-1,.cls-2,.cls-3{stroke-width:0px;}.cls-1,.cls-4{fill:#d4af37;}.cls-2{fill:url(#linear-gradient);}.cls-3{fill:url(#linear-gradient-2);}.cls-4{font-family:Poppins-Light, Poppins;font-size:18px;font-weight:300;}</style><linearGradient id="linear-gradient" x1="140" y1="54.04" x2="0" y2="54.04" gradientTransform="translate(0 104.04) scale(1 -1)" gradientUnits="userSpaceOnUse"><stop offset="0" stop-color="#c48809"/><stop offset=".25" stop-color="#c88f2b"/><stop offset=".5" stop-color="#5e4105"/><stop offset=".75" stop-color="#c28828"/><stop offset="1" stop-color="#d8a031"/></linearGradient><linearGradient id="linear-gradient-2" x1="140" y1="53.8" x2="0" y2="53.8" gradientTransform="translate(0 104.04) scale(1 -1)" gradientUnits="userSpaceOnUse"><stop offset="0" stop-color="#c48809"/><stop offset=".25" stop-color="#c88f2b"/><stop offset=".5" stop-color="#5e4105"/><stop offset=".75" stop-color="#c28828"/><stop offset="1" stop-color="#d8a031"/></linearGradient></defs><path class="cls-2" d="m74.1,76.5c-.09.18-.18.38-.27.56-.95,4.45-3.53,11.54-10.58,15.67-5.2,3.05-10.39,2.98-12.95,2.98h-1.49c-17.23,0-29.8-20.67-29.8-46.2v-1.5c0-8.34-.5-18.1,4.94-27.41,3.86-6.6,8.65-10.99,12.06-13.64,3.71-2.3,8.53-3.7,12.81-3.7,4.87,0,9.48,1.66,13.59,4.61,1.03.63,2.08,1.37,3.09,2.27.4.36.77.72,1.13,1.08.93.97,1.71,1.97,2.56,3.26,1.98,3.01,3.98,6.99,4.29,7.61-.55-7.33-1.09-14.67-1.64-22C47.88.06,23.94.03,0,0l9.06.74c.77.08,3.76.44,6.09,2.95,1.67,1.8,2.16,3.79,2.32,4.66v82.78c-.45,1.14-1,2.08-1.56,2.84-3.92,5.3-11.06,5.96-14,6.02h70.3l1.89-23.5Z"/><path class="cls-3" d="m50.93,35.07v34.08c-.02-1.67.18-5.1,2.18-8.79,2.37-4.35,5.95-5.35,7.42-6.14,1.47-.79,6.38-1.37,10.51-1.25,4.86.14,10.07,1.11,12.19,2.5,2.25,1.48,3.09,3.19,3.96,4.35l22.82,34.17c.87,1.05,2.46,2.69,4.91,3.97,2.77,1.44,5.31,1.74,6.72,1.8l18.36.23c-2.19-.12-5.6-.59-9.27-2.39-6.52-3.21-20.72-24.2-20.72-24.2l-9.96-15.85s-3.31-3.8-4.58-4.32c-2.11-.88-4.03-1.14-5.36-1.22,2.76-.68,5.51-1.35,8.27-2.03,2.42-.79,6.54-2.48,10.43-6.13,1.7-1.59,6.9-6.62,8.02-14.42,1.43-9.99-4.64-19.16-11.56-23.99C98.33.6,90.97.42,88.02.51h-8.25c2.09.03,5.25.33,8.73,1.76,5.69,2.34,8.81,6.28,10.02,7.85,2.69,3.49,3.79,6.78,4.16,7.98,1.21,4,1.06,7.24.96,9.2-.12,2.17-.5,7.75-4.09,13.6-1.3,2.12-3.14,5.1-6.88,7.44-3.77,2.35-7.51,2.44-9.44,2.54,0,0-8.08.39-12.19.42-4.76.03-8.27-.35-10.37-1.3-3.66-1.65-5.62-3-7.56-6.63-1.58-2.96-2.18-8.31-2.18-8.31Z"/><path class="cls-1" d="m137.51,45.58c-.08,0-.12-.08-.12-.24s.04-.24.12-.24c.91,0,1.56-.07,1.96-.2.43-.13.71-.39.84-.76.16-.4.24-1,.24-1.8v-18.52c0-.8-.08-1.39-.24-1.76-.13-.37-.41-.63-.84-.76-.43-.16-1.08-.24-1.96-.24-.08,0-.12-.08-.12-.24s.04-.24.12-.24h16.64c.27,0,.4.12.4.36l.08,5.2c0,.05-.08.09-.24.12-.13,0-.21-.04-.24-.12-.64-3.01-2.48-4.52-5.52-4.52h-1.64c-.99,0-1.68.17-2.08.52-.37.35-.56.93-.56,1.76v18.28c0,.88.16,1.49.48,1.84.35.35.95.52,1.8.52h1.96c3.57,0,5.84-1.72,6.8-5.16,0-.05.07-.08.2-.08.19,0,.28.04.28.12-.27,2.03-.4,3.88-.4,5.56,0,.21-.04.37-.12.48-.08.08-.24.12-.48.12h-17.36Zm15.12-9.04c0-2.29-1.49-3.44-4.48-3.44h-5.6v-1.04h5.64c2.93,0,4.4-.99,4.4-2.96,0-.08.07-.12.2-.12.16,0,.24.04.24.12l-.04,3.48.04,1.88c.05.85.08,1.55.08,2.08,0,.05-.08.08-.24.08s-.24-.03-.24-.08Zm6.55,9.04c-.08,0-.12-.08-.12-.24s.04-.24.12-.24c.91,0,1.51-.19,1.8-.56.32-.37.48-1.11.48-2.2v-20.44c0-.93-.09-1.6-.28-2-.16-.43-.45-.64-.88-.64-.4,0-.95.16-1.64.48h-.04c-.11,0-.19-.07-.24-.2-.05-.13-.05-.23,0-.28l5.64-2.64.16-.04c.11,0,.23.05.36.16.13.11.2.2.2.28v25.32c0,1.09.15,1.83.44,2.2.32.37.93.56,1.84.56.08,0,.12.08.12.24s-.04.24-.12.24c-.67,0-1.2-.01-1.6-.04l-2.32-.04-2.32.04c-.4.03-.93.04-1.6.04Zm10.87,0c-.08,0-.12-.08-.12-.24s.04-.24.12-.24c.91,0,1.51-.19,1.8-.56.32-.37.48-1.11.48-2.2v-7.28c0-.91-.09-1.56-.28-1.96-.19-.43-.51-.64-.96-.64-.43,0-.96.16-1.6.48h-.04c-.11,0-.19-.07-.24-.2-.05-.13-.04-.23.04-.28l5.76-2.68.12-.04c.11,0,.21.07.32.2.13.11.2.2.2.28v.84c-.05,1.12-.08,2.44-.08,3.96v7.32c0,1.09.15,1.83.44,2.2.32.37.93.56,1.84.56.08,0,.12.08.12.24s-.04.24-.12.24c-.67,0-1.2-.01-1.6-.04l-2.32-.04-2.32.04c-.37.03-.89.04-1.56.04Zm3.68-20.04c-.69,0-1.24-.19-1.64-.56-.37-.37-.56-.91-.56-1.6,0-.64.19-1.15.56-1.52.4-.37.95-.56,1.64-.56s1.17.19,1.52.56c.37.37.56.88.56,1.52,0,.69-.19,1.23-.56,1.6-.35.37-.85.56-1.52.56Zm12.58,20.52c-1.15,0-2.12-.27-2.92-.8-.77-.56-1.16-1.48-1.16-2.76v-9.04c0-.88-.15-1.47-.44-1.76-.27-.29-.8-.44-1.6-.44-.03,0-.07-.03-.12-.08-.03-.08-.04-.16-.04-.24s.01-.15.04-.2c.05-.08.09-.12.12-.12,2.51-.11,4.08-1.19,4.72-3.24.03-.11.13-.16.32-.16s.28.05.28.16v13.8c0,1.04.25,1.81.76,2.32.53.48,1.27.72,2.2.72,1.12,0,2.17-.39,3.16-1.16l.08-.04c.08,0,.15.07.2.2.08.11.08.19,0,.24-.99.91-1.92,1.57-2.8,2-.88.4-1.81.6-2.8.6Zm4.36-13.92c-1.92-.43-4.03-.64-6.32-.64v-.96c1.71,0,3.87-.13,6.48-.4.05,0,.11.11.16.32.08.19.12.4.12.64s-.05.48-.16.72c-.08.24-.17.35-.28.32Zm10.92,13.92c-1.63,0-3.04-.36-4.24-1.08-1.17-.72-2.08-1.67-2.72-2.84-.61-1.17-.92-2.44-.92-3.8,0-1.57.39-3.01,1.16-4.32.77-1.31,1.83-2.33,3.16-3.08,1.36-.77,2.87-1.16,4.52-1.16s2.83.39,3.68,1.16c.88.77,1.32,1.92,1.32,3.44,0,.4-.04.69-.12.88-.05.19-.16.28-.32.28h-3.28c.13-3.31-.77-4.96-2.72-4.96-1.2,0-2.15.55-2.84,1.64-.67,1.09-1,2.57-1,4.44,0,2.35.55,4.21,1.64,5.6,1.09,1.36,2.64,2.04,4.64,2.04.75,0,1.37-.09,1.88-.28.51-.19,1.17-.49,2-.92l.08-.04c.05,0,.11.05.16.16.08.11.09.19.04.24-.96.91-1.93,1.57-2.92,2-.99.4-2.05.6-3.2.6Zm-5.52-11.16l8.88-.16v.8l-8.84.04-.04-.68Zm39.14-14.76c2.96,0,5.35.41,7.16,1.24.21.11.35.21.4.32.05.08.11.28.16.6l.48,5.28c0,.08-.07.13-.2.16-.13.03-.23-.01-.28-.12-.69-2.19-1.73-3.85-3.12-5-1.36-1.15-3.05-1.72-5.08-1.72s-3.72.49-5.24,1.48c-1.52.96-2.71,2.36-3.56,4.2-.85,1.81-1.28,3.93-1.28,6.36s.45,4.55,1.36,6.44c.91,1.87,2.15,3.32,3.72,4.36s3.35,1.56,5.32,1.56,3.56-.51,4.84-1.52c1.31-1.04,2.45-2.68,3.44-4.92.03-.08.11-.11.24-.08s.2.07.2.12l-.52,4.76c-.05.32-.11.53-.16.64-.05.08-.19.17-.4.28-2.4.99-4.96,1.48-7.68,1.48s-5.36-.53-7.6-1.6c-2.24-1.09-3.99-2.61-5.24-4.56-1.25-1.97-1.88-4.23-1.88-6.76s.64-4.75,1.92-6.72c1.31-1.97,3.09-3.51,5.36-4.6,2.27-1.12,4.81-1.68,7.64-1.68Zm19.82,25.96c-1.6,0-3.01-.37-4.24-1.12-1.23-.77-2.17-1.8-2.84-3.08-.67-1.31-1-2.72-1-4.24,0-1.73.43-3.2,1.28-4.4.88-1.23,1.99-2.13,3.32-2.72,1.36-.61,2.75-.92,4.16-.92,1.63,0,3.04.39,4.24,1.16,1.23.77,2.16,1.8,2.8,3.08.64,1.25.96,2.6.96,4.04,0,1.6-.4,3.03-1.2,4.28-.77,1.25-1.83,2.23-3.16,2.92-1.33.67-2.77,1-4.32,1Zm1.2-.8c1.17,0,2.08-.52,2.72-1.56s.96-2.56.96-4.56c0-1.79-.25-3.35-.76-4.68-.48-1.33-1.15-2.35-2-3.04-.83-.69-1.75-1.04-2.76-1.04-1.2,0-2.12.49-2.76,1.48-.61.99-.92,2.44-.92,4.36,0,1.73.24,3.29.72,4.68.48,1.36,1.13,2.43,1.96,3.2.85.77,1.8,1.16,2.84,1.16Zm21.25.28c-.08,0-.12-.08-.12-.24s.04-.24.12-.24c.91,0,1.51-.19,1.8-.56.29-.37.44-1.11.44-2.2v-6c0-1.49-.28-2.59-.84-3.28-.53-.72-1.39-1.08-2.56-1.08-.88,0-1.77.24-2.68.72-.88.48-1.6,1.12-2.16,1.92l-.2-.48c2.13-2.99,4.48-4.48,7.04-4.48,1.47,0,2.6.44,3.4,1.32.83.88,1.24,2.09,1.24,3.64v7.72c0,1.09.15,1.83.44,2.2.32.37.93.56,1.84.56.08,0,.12.08.12.24s-.04.24-.12.24c-.67,0-1.2-.01-1.6-.04l-2.28-.04-2.28.04c-.4.03-.93.04-1.6.04Zm-10.76,0c-.08,0-.12-.08-.12-.24s.04-.24.12-.24c.91,0,1.51-.19,1.8-.56.29-.37.44-1.11.44-2.2v-7.64c0-.85-.11-1.48-.32-1.88-.19-.4-.51-.6-.96-.6-.4,0-1.07.2-2,.6h-.04c-.11,0-.19-.07-.24-.2-.05-.13-.04-.21.04-.24l5.24-2.56c.16-.05.25-.08.28-.08.29,0,.57.33.84,1,.27.67.4,1.53.4,2.6v9c0,1.09.15,1.83.44,2.2.32.37.93.56,1.84.56.08,0,.12.08.12.24s-.04.24-.12.24c-.67,0-1.2-.01-1.6-.04l-2.28-.04-2.32.04c-.37.03-.89.04-1.56.04Zm28.62.48c-1.73,0-3.21-.37-4.44-1.12-1.2-.77-2.09-1.76-2.68-2.96-.59-1.23-.88-2.51-.88-3.84,0-1.68.45-3.15,1.36-4.4.91-1.28,2.07-2.25,3.48-2.92,1.44-.69,2.89-1.04,4.36-1.04,1.25,0,2.37.25,3.36.76,1.01.51,1.52,1.19,1.52,2.04,0,.45-.17.84-.52,1.16-.32.32-.79.48-1.4.48-1.04,0-1.77-.59-2.2-1.76-.24-.67-.52-1.13-.84-1.4-.29-.29-.76-.44-1.4-.44-1.25,0-2.25.57-3,1.72-.72,1.12-1.08,2.63-1.08,4.52,0,2.21.51,4.01,1.52,5.4,1.04,1.36,2.65,2.04,4.84,2.04.72,0,1.37-.09,1.96-.28.61-.19,1.27-.48,1.96-.88h.04c.08,0,.15.04.2.12.08.08.09.15.04.2-.99.88-1.96,1.53-2.92,1.96-.96.43-2.05.64-3.28.64Zm9.24-.48c-.08,0-.12-.08-.12-.24s.04-.24.12-.24c.91,0,1.51-.19,1.8-.56.32-.37.48-1.11.48-2.2v-7.28c0-.91-.09-1.56-.28-1.96-.19-.43-.51-.64-.96-.64-.43,0-.96.16-1.6.48h-.04c-.11,0-.19-.07-.24-.2-.05-.13-.04-.23.04-.28l5.76-2.68.12-.04c.11,0,.21.07.32.2.13.11.2.2.2.28v.84c-.05,1.12-.08,2.44-.08,3.96v7.32c0,1.09.15,1.83.44,2.2.32.37.93.56,1.84.56.08,0,.12.08.12.24s-.04.24-.12.24c-.67,0-1.2-.01-1.6-.04l-2.32-.04-2.32.04c-.37.03-.89.04-1.56.04Zm3.68-20.04c-.69,0-1.24-.19-1.64-.56-.37-.37-.56-.91-.56-1.6,0-.64.19-1.15.56-1.52.4-.37.95-.56,1.64-.56s1.17.19,1.52.56c.37.37.56.88.56,1.52,0,.69-.19,1.23-.56,1.6-.35.37-.85.56-1.52.56Zm14.38,20.52c-1.63,0-3.04-.36-4.24-1.08-1.17-.72-2.08-1.67-2.72-2.84-.61-1.17-.92-2.44-.92-3.8,0-1.57.39-3.01,1.16-4.32.77-1.31,1.83-2.33,3.16-3.08,1.36-.77,2.87-1.16,4.52-1.16s2.83.39,3.68,1.16c.88.77,1.32,1.92,1.32,3.44,0,.4-.04.69-.12.88-.05.19-.16.28-.32.28h-3.28c.13-3.31-.77-4.96-2.72-4.96-1.2,0-2.15.55-2.84,1.64-.67,1.09-1,2.57-1,4.44,0,2.35.55,4.21,1.64,5.6,1.09,1.36,2.64,2.04,4.64,2.04.75,0,1.37-.09,1.88-.28.51-.19,1.17-.49,2-.92l.08-.04c.05,0,.11.05.16.16.08.11.09.19.04.24-.96.91-1.93,1.57-2.92,2-.99.4-2.05.6-3.2.6Zm-5.52-11.16l8.88-.16v.8l-8.84.04-.04-.68Zm18.8-.64c1.44-1.71,2.59-2.88,3.44-3.52.85-.67,1.61-1,2.28-1,.59,0,1.16.2,1.72.6s.84.88.84,1.44c0,.51-.15.92-.44,1.24-.29.29-.71.44-1.24.44-.35,0-.63-.07-.84-.2-.21-.13-.45-.33-.72-.6-.24-.24-.45-.41-.64-.52-.19-.13-.41-.2-.68-.2-.35,0-.75.17-1.2.52-.43.35-1.17,1.11-2.24,2.28l-.28-.48Zm-4.28,11.32c-.08,0-.12-.08-.12-.24s.04-.24.12-.24c.91,0,1.51-.19,1.8-.56.29-.37.44-1.11.44-2.2v-7.64c0-.85-.11-1.48-.32-1.88-.19-.4-.51-.6-.96-.6-.4,0-1.07.2-2,.6h-.04c-.11,0-.19-.07-.24-.2-.05-.13-.04-.21.04-.24l5.24-2.56c.16-.05.25-.08.28-.08.29,0,.57.33.84,1,.27.67.4,1.53.4,2.6v9c0,.75.11,1.32.32,1.72.21.37.57.64,1.08.8.53.16,1.29.24,2.28.24.11,0,.16.08.16.24s-.05.24-.16.24c-.91,0-1.63-.01-2.16-.04l-3.12-.04-2.32.04c-.37.03-.89.04-1.56.04Zm20.09,11.24c-1.84,0-3.33-.41-4.48-1.24-1.12-.83-1.68-1.91-1.68-3.24,0-1.04.41-2.08,1.24-3.12s2.16-2.11,4-3.2l.4.48c-.8.45-1.41.99-1.84,1.6-.43.64-.64,1.44-.64,2.4,0,1.6.48,2.84,1.44,3.72.99.91,2.23,1.36,3.72,1.36s2.75-.45,3.68-1.36c.93-.88,1.4-2.08,1.4-3.6,0-1.12-.25-1.95-.76-2.48-.48-.51-1.13-.83-1.96-.96-.8-.11-1.96-.17-3.48-.2-1.92-.03-3.41-.24-4.48-.64-1.07-.37-1.6-1.17-1.6-2.4,0-.93.31-1.8.92-2.6.64-.8,1.61-1.57,2.92-2.32l.4.28c-.59.37-1.01.77-1.28,1.2-.27.4-.4.87-.4,1.4,0,.96.39,1.57,1.16,1.84.8.27,2.17.41,4.12.44,1.52.03,2.76.11,3.72.24.96.13,1.79.51,2.48,1.12.72.61,1.08,1.57,1.08,2.88,0,1.47-.47,2.84-1.4,4.12-.93,1.31-2.17,2.35-3.72,3.12-1.55.77-3.2,1.16-4.96,1.16Zm.84-16.56c-1.23,0-2.31-.25-3.24-.76-.93-.51-1.65-1.16-2.16-1.96-.51-.83-.76-1.69-.76-2.6,0-1.04.32-1.95.96-2.72.64-.77,1.47-1.36,2.48-1.76,1.04-.4,2.15-.6,3.32-.6,1.25,0,2.35.23,3.28.68.93.45,1.65,1.07,2.16,1.84.51.77.76,1.61.76,2.52,0,1.01-.32,1.93-.96,2.76-.64.83-1.48,1.47-2.52,1.92-1.04.45-2.15.68-3.32.68Zm.96-.68c.69,0,1.27-.29,1.72-.88s.68-1.51.68-2.76c0-1.12-.2-2.08-.6-2.88-.37-.83-.87-1.44-1.48-1.84-.59-.43-1.21-.64-1.88-.64-1.44,0-2.16,1.08-2.16,3.24,0,1.15.17,2.16.52,3.04.37.85.84,1.52,1.4,2,.59.48,1.19.72,1.8.72Zm3.08-7.88c.88-.64,1.72-1.12,2.52-1.44.83-.32,1.71-.48,2.64-.48.19,0,.28.35.28,1.04,0,.35-.05.72-.16,1.12-.08.4-.17.57-.28.52-.99-.43-1.95-.64-2.88-.64-.67,0-1.29.09-1.88.28l-.28.88.04-1.28Zm14.58,14.36c-1.63,0-3.04-.36-4.24-1.08-1.17-.72-2.08-1.67-2.72-2.84-.61-1.17-.92-2.44-.92-3.8,0-1.57.39-3.01,1.16-4.32.77-1.31,1.83-2.33,3.16-3.08,1.36-.77,2.87-1.16,4.52-1.16s2.83.39,3.68,1.16c.88.77,1.32,1.92,1.32,3.44,0,.4-.04.69-.12.88-.05.19-.16.28-.32.28h-3.28c.13-3.31-.77-4.96-2.72-4.96-1.2,0-2.15.55-2.84,1.64-.67,1.09-1,2.57-1,4.44,0,2.35.55,4.21,1.64,5.6,1.09,1.36,2.64,2.04,4.64,2.04.75,0,1.37-.09,1.88-.28.51-.19,1.17-.49,2-.92l.08-.04c.05,0,.11.05.16.16.08.11.09.19.04.24-.96.91-1.93,1.57-2.92,2-.99.4-2.05.6-3.2.6Zm-5.52-11.16l8.88-.16v.8l-8.84.04-.04-.68Zm43.78,10.68c-.64,0-1.83-1.12-3.56-3.36-1.71-2.24-3.79-5.36-6.24-9.36l3.2-.96c2.24,3.33,4.11,5.95,5.6,7.84,1.52,1.87,2.87,3.23,4.04,4.08,1.17.85,2.31,1.28,3.4,1.28.05,0,.08.08.08.24s-.03.24-.08.24h-6.44Zm-9.08-25.12c2.29,0,4.08.47,5.36,1.4,1.28.91,1.92,2.16,1.92,3.76,0,1.49-.43,2.84-1.28,4.04-.85,1.2-1.99,2.15-3.4,2.84-1.39.67-2.85,1-4.4,1-.56,0-1.24-.03-2.04-.08v8.92c0,.83.07,1.43.2,1.8.13.37.4.63.8.76.43.13,1.11.2,2.04.2.05,0,.08.08.08.24s-.03.24-.08.24c-.88,0-1.57-.01-2.08-.04l-2.92-.04-2.88.04c-.51.03-1.2.04-2.08.04-.08,0-.12-.08-.12-.24s.04-.24.12-.24c.91,0,1.56-.07,1.96-.2.43-.13.72-.39.88-.76.16-.4.24-1,.24-1.8v-18.52c0-.8-.08-1.39-.24-1.76-.13-.37-.41-.63-.84-.76-.43-.16-1.08-.24-1.96-.24-.05,0-.08-.08-.08-.24s.03-.24.08-.24l2.08.04c1.17.05,2.12.08,2.84.08.88,0,1.84-.04,2.88-.12.35-.03.76-.05,1.24-.08.51-.03,1.07-.04,1.68-.04Zm3.32,6.56c0-2.16-.37-3.67-1.12-4.52-.72-.85-1.77-1.28-3.16-1.28-1.07,0-1.81.2-2.24.6-.43.37-.64,1.07-.64,2.08v8.44c.64.11,1.41.16,2.32.16,1.73,0,2.97-.43,3.72-1.28.75-.88,1.12-2.28,1.12-4.2Zm22.18,6.44c-.59-1.17-1.04-1.93-1.36-2.28-.32-.37-.73-.56-1.24-.56-.05,0-.08-.08-.08-.24s.03-.24.08-.24c.45,0,.83.01,1.12.04l2.08.04,2.72-.04c.4-.03.95-.04,1.64-.04.05,0,.08.08.08.24s-.03.24-.08.24c-.61,0-1.11.09-1.48.28-.35.16-.52.4-.52.72,0,.19.05.37.16.56l4.88,9.64-1.68,2.88,4.44-10.8c.19-.48.28-.93.28-1.36,0-.61-.24-1.08-.72-1.4-.45-.35-1.12-.52-2-.52-.08,0-.12-.08-.12-.24s.04-.24.12-.24c.72,0,1.25.01,1.6.04l2.4.04,1.6-.04c.27-.03.72-.04,1.36-.04.08,0,.12.08.12.24s-.04.24-.12.24c-.72,0-1.36.27-1.92.8-.53.51-1.05,1.36-1.56,2.56l-4.96,11.56c-.03.11-.16.16-.4.16-.29,0-.45-.05-.48-.16l-5.96-12.08Zm-9.68,0c-.59-1.17-1.08-1.93-1.48-2.28-.37-.37-.85-.56-1.44-.56-.08,0-.12-.08-.12-.24s.04-.24.12-.24c.48,0,.87.01,1.16.04l2.32.04,2.72-.04c.4-.03.95-.04,1.64-.04.08,0,.12.08.12.24s-.04.24-.12.24c-1.41,0-2.12.31-2.12.92,0,.16.07.37.2.64l5.04,9.64-1.76,2.88,4.36-10.52.96.2-4.8,11.16c0,.11-.13.16-.4.16-.24,0-.4-.05-.48-.16l-5.92-12.08Zm36.84,12.36c-.11.05-.23.08-.36.08-.48,0-.92-.32-1.32-.96-.4-.67-.6-1.55-.6-2.64v-7.04c0-1.65-.17-2.85-.52-3.6-.32-.77-.84-1.16-1.56-1.16-.88,0-1.52.33-1.92,1-.37.64-.6,1.36-.68,2.16-.16,1.36-.84,2.04-2.04,2.04-.59,0-1.03-.13-1.32-.4-.27-.27-.4-.6-.4-1,0-.75.44-1.47,1.32-2.16.91-.72,1.99-1.29,3.24-1.72,1.28-.45,2.4-.68,3.36-.68,1.15,0,2.05.36,2.72,1.08.69.72,1.04,1.8,1.04,3.24v7.2c0,1.68.52,2.52,1.56,2.52.4,0,.88-.12,1.44-.36h.08c.11,0,.17.07.2.2.03.11-.01.19-.12.24l-4.12,1.96Zm-7.52.04c-1.09,0-1.92-.25-2.48-.76s-.84-1.2-.84-2.08c0-.72.19-1.31.56-1.76.4-.45.89-.81,1.48-1.08.59-.29,1.47-.65,2.64-1.08l4.28-1.6.12.6-2.92,1.24c-.72.29-1.29.61-1.72.96-.43.35-.64.87-.64,1.56,0,.64.2,1.15.6,1.52.43.37.92.56,1.48.56.51,0,1.03-.16,1.56-.48l2.16-1.44.04.6-2.84,2c-.64.45-1.23.77-1.76.96-.51.19-1.08.28-1.72.28Zm24.04-.28c-.08,0-.12-.08-.12-.24s.04-.24.12-.24c.91,0,1.51-.19,1.8-.56.29-.37.44-1.11.44-2.2v-6c0-1.49-.28-2.59-.84-3.28-.53-.72-1.39-1.08-2.56-1.08-.88,0-1.77.24-2.68.72-.88.48-1.6,1.12-2.16,1.92l-.2-.48c2.13-2.99,4.48-4.48,7.04-4.48,1.47,0,2.6.44,3.4,1.32.83.88,1.24,2.09,1.24,3.64v7.72c0,1.09.15,1.83.44,2.2.32.37.93.56,1.84.56.08,0,.12.08.12.24s-.04.24-.12.24c-.67,0-1.2-.01-1.6-.04l-2.28-.04-2.28.04c-.4.03-.93.04-1.6.04Zm-10.76,0c-.08,0-.12-.08-.12-.24s.04-.24.12-.24c.91,0,1.51-.19,1.8-.56.29-.37.44-1.11.44-2.2v-7.64c0-.85-.11-1.48-.32-1.88-.19-.4-.51-.6-.96-.6-.4,0-1.07.2-2,.6h-.04c-.11,0-.19-.07-.24-.2-.05-.13-.04-.21.04-.24l5.24-2.56c.16-.05.25-.08.28-.08.29,0,.57.33.84,1,.27.67.4,1.53.4,2.6v9c0,1.09.15,1.83.44,2.2.32.37.93.56,1.84.56.08,0,.12.08.12.24s-.04.24-.12.24c-.67,0-1.2-.01-1.6-.04l-2.28-.04-2.32.04c-.37.03-.89.04-1.56.04Zm26.9.52c-1.15,0-2.2-.31-3.16-.92-.96-.64-1.72-1.55-2.28-2.72-.56-1.17-.84-2.55-.84-4.12,0-1.97.47-3.61,1.4-4.92.93-1.31,2.11-2.27,3.52-2.88,1.41-.61,2.83-.92,4.24-.92,1.73,0,3.37.48,4.92,1.44l-.76,3.04c-.64-1.2-1.35-2.08-2.12-2.64-.75-.59-1.68-.88-2.8-.88-1.52,0-2.71.53-3.56,1.6-.83,1.07-1.24,2.71-1.24,4.92s.44,4.01,1.32,5.32c.88,1.28,2,1.92,3.36,1.92,1.01,0,1.92-.27,2.72-.8.83-.53,1.71-1.31,2.64-2.32l.36.32c-1.23,1.36-2.44,2.47-3.64,3.32-1.17.83-2.53,1.24-4.08,1.24Zm9.48-5.08c0,.93.09,1.6.28,2,.19.37.51.56.96.56.53,0,1.13-.16,1.8-.48h.04c.08,0,.15.07.2.2.08.13.08.21,0,.24l-5.12,2.48-.24.04c-.32,0-.6-.33-.84-1-.21-.67-.32-1.59-.32-2.76v-20.4c0-.93-.09-1.6-.28-2-.16-.43-.47-.64-.92-.64-.29,0-.83.16-1.6.48h-.08c-.11,0-.19-.07-.24-.2-.05-.13-.04-.21.04-.24l5.6-2.68.16-.04c.11,0,.23.05.36.16.13.11.2.2.2.28v24Zm16.03,4.8c-.11.05-.23.08-.36.08-.48,0-.92-.32-1.32-.96-.4-.67-.6-1.55-.6-2.64v-7.04c0-1.65-.17-2.85-.52-3.6-.32-.77-.84-1.16-1.56-1.16-.88,0-1.52.33-1.92,1-.37.64-.6,1.36-.68,2.16-.16,1.36-.84,2.04-2.04,2.04-.59,0-1.03-.13-1.32-.4-.27-.27-.4-.6-.4-1,0-.75.44-1.47,1.32-2.16.91-.72,1.99-1.29,3.24-1.72,1.28-.45,2.4-.68,3.36-.68,1.15,0,2.05.36,2.72,1.08.69.72,1.04,1.8,1.04,3.24v7.2c0,1.68.52,2.52,1.56,2.52.4,0,.88-.12,1.44-.36h.08c.11,0,.17.07.2.2.03.11-.01.19-.12.24l-4.12,1.96Zm-7.52.04c-1.09,0-1.92-.25-2.48-.76s-.84-1.2-.84-2.08c0-.72.19-1.31.56-1.76.4-.45.89-.81,1.48-1.08.59-.29,1.47-.65,2.64-1.08l4.28-1.6.12.6-2.92,1.24c-.72.29-1.29.61-1.72.96-.43.35-.64.87-.64,1.56,0,.64.2,1.15.6,1.52.43.37.92.56,1.48.56.51,0,1.03-.16,1.56-.48l2.16-1.44.04.6-2.84,2c-.64.45-1.23.77-1.76.96-.51.19-1.08.28-1.72.28Z"/><text class="cls-4" transform="translate(177.85 78.79)"><tspan x="0" y="0">Signing the exception</tspan></text></svg>