<svg width="50" height="51" viewBox="0 0 50 51" fill="none" xmlns="http://www.w3.org/2000/svg">
<rect y="0.5" width="50" height="50" rx="25" fill="#F9F4E2"/>
<path d="M30 33.5C30 31.8431 27.7614 30.5 25 30.5C22.2386 30.5 20 31.8431 20 33.5M34 30.5004C34 29.2702 32.7659 28.2129 31 27.75M16 30.5004C16 29.2702 17.2341 28.2129 19 27.75M31 23.7361C31.6137 23.1868 32 22.3885 32 21.5C32 19.8431 30.6569 18.5 29 18.5C28.2316 18.5 27.5308 18.7889 27 19.2639M19 23.7361C18.3863 23.1868 18 22.3885 18 21.5C18 19.8431 19.3431 18.5 21 18.5C21.7684 18.5 22.4692 18.7889 23 19.2639M25 27.5C23.3431 27.5 22 26.1569 22 24.5C22 22.8431 23.3431 21.5 25 21.5C26.6569 21.5 28 22.8431 28 24.5C28 26.1569 26.6569 27.5 25 27.5Z" stroke="#1C1C1C" stroke-width="2" stroke-linecap="round" stroke-linejoin="round"/>
</svg>
