<svg width="24" height="25" viewBox="0 0 24 25" fill="none" xmlns="http://www.w3.org/2000/svg">
<path d="M11.9987 8.56901C13.883 8.56904 15.4589 9.87043 15.8841 11.6211C15.9603 11.929 16.0039 12.2506 16.0039 12.582C16.0036 14.7884 14.2126 16.5766 12.0026 16.5768C9.99358 16.5768 8.32932 15.0993 8.04297 13.1732C8.01263 12.9749 7.9961 12.7719 7.99609 12.5651C7.99609 10.3584 9.78833 8.56901 11.9987 8.56901Z" fill="#D8A031"/>
<path fill-rule="evenodd" clip-rule="evenodd" d="M11.9987 0.585938C15.2529 0.585938 15.6596 0.601657 16.9414 0.658854C17.9372 0.679266 18.923 0.867995 19.8555 1.21745C20.6521 1.52562 21.375 1.99718 21.9792 2.60026C22.5834 3.20348 23.0559 3.9259 23.3646 4.72135C23.7205 5.66421 23.9097 6.66177 23.9232 7.66927C23.9978 8.94253 23.9973 9.35539 24 12.6042C24 15.8542 23.9831 16.2608 23.9258 17.5404C23.9058 18.5369 23.7176 19.5192 23.3672 20.4505C23.0581 21.2458 22.5859 21.9684 21.9818 22.5716C21.3777 23.1746 20.6545 23.6459 19.8581 23.9544C18.9256 24.3038 17.9398 24.4921 16.944 24.5117C15.6716 24.5862 15.2541 24.5859 12 24.5859C8.74584 24.5859 8.33905 24.5689 7.05599 24.5117C6.05826 24.479 5.07273 24.2763 4.14323 23.9128C3.34642 23.6048 2.62263 23.1342 2.01823 22.5312C1.41382 21.9283 0.94183 21.2055 0.632813 20.4102C0.282494 19.4778 0.0942475 18.4962 0.0742188 17.5013C-0.000411227 16.2294 4.90355e-08 15.8138 4.8875e-08 12.5651C4.8875e-08 9.3164 0.0169295 8.90979 0.0742188 7.62891C0.0930399 6.63522 0.282127 5.65151 0.632813 4.72135C0.941264 3.92594 1.41286 3.20343 2.01693 2.60026C2.62117 1.99703 3.34504 1.52545 4.14193 1.21745C5.07398 0.868143 6.05934 0.679416 7.05469 0.658854C8.32706 0.585704 8.74457 0.585938 11.9987 0.585938ZM11.9909 6.40755C8.58707 6.40755 5.82943 9.16043 5.82943 12.5586C5.82975 15.9565 8.58726 18.7096 11.9909 18.7096C13.6249 18.7096 15.1922 18.061 16.3477 16.9076C17.5029 15.7542 18.1522 14.1897 18.1523 12.5586C18.1523 10.9273 17.5031 9.36187 16.3477 8.20833C15.1922 7.05484 13.6249 6.40761 11.9909 6.40755ZM18.3971 4.74609C18.2086 4.74609 18.0206 4.78342 17.8464 4.85547C17.6726 4.92744 17.5146 5.0326 17.3815 5.16536C17.2483 5.29831 17.1425 5.45656 17.0703 5.63021C16.9981 5.80415 16.9609 5.99142 16.9609 6.17969C16.9608 6.36802 16.9969 6.55514 17.069 6.72917C17.1411 6.90312 17.2482 7.06088 17.3815 7.19401C17.5149 7.32709 17.6734 7.43324 17.8477 7.50521C18.0219 7.57708 18.2086 7.61345 18.3971 7.61328C19.19 7.61328 19.8319 6.97258 19.832 6.17969C19.832 5.99142 19.7948 5.80415 19.7227 5.63021C19.6505 5.45656 19.5446 5.2983 19.4115 5.16536C19.2784 5.0326 19.1204 4.92744 18.9466 4.85547C18.7726 4.7835 18.5855 4.74618 18.3971 4.74609Z" fill="#D8A031"/>
</svg>
