<svg width="24" height="25" viewBox="0 0 24 25" fill="none" xmlns="http://www.w3.org/2000/svg">
<path d="M22.6667 0.585938H1.33333C0.979711 0.585938 0.640573 0.726413 0.390524 0.976462C0.140476 1.22651 0 1.56565 0 1.91927V23.2526C0 23.6062 0.140476 23.9454 0.390524 24.1954C0.640573 24.4455 0.979711 24.5859 1.33333 24.5859H22.6667C23.0203 24.5859 23.3594 24.4455 23.6095 24.1954C23.8595 23.9454 24 23.6062 24 23.2526V1.91927C24 1.56565 23.8595 1.22651 23.6095 0.976462C23.3594 0.726413 23.0203 0.585938 22.6667 0.585938ZM7.11867 21.0353H3.556V9.58194H7.11867V21.0353ZM5.33733 8.01794C4.78993 8.01794 4.26494 7.80048 3.87786 7.41341C3.49079 7.02633 3.27333 6.50134 3.27333 5.95394C3.27333 5.40653 3.49079 4.88154 3.87786 4.49447C4.26494 4.10739 4.78993 3.88994 5.33733 3.88994C5.88474 3.88994 6.40973 4.10739 6.7968 4.49447C7.18388 4.88154 7.40133 5.40653 7.40133 5.95394C7.40133 6.50134 7.18388 7.02633 6.7968 7.41341C6.40973 7.80048 5.88474 8.01794 5.33733 8.01794ZM20.4507 21.0353H16.892V15.4659C16.892 14.1379 16.868 12.4299 15.0413 12.4299C13.188 12.4299 12.9067 13.8779 12.9067 15.3726V21.0366H9.35067V9.58327H12.764V11.1486H12.8133C13.2867 10.2486 14.4493 9.29927 16.1787 9.29927C19.784 9.29927 20.4493 11.6699 20.4493 14.7553L20.4507 21.0353Z" fill="#D8A031"/>
</svg>
