<svg width="35" height="36" viewBox="0 0 35 36" fill="none" xmlns="http://www.w3.org/2000/svg">
<path d="M30.0706 12.8228C28.5394 6.08534 22.6623 3.052 17.4998 3.052C17.4998 3.052 17.4998 3.052 17.4852 3.052C12.3373 3.052 6.44561 6.07075 4.91436 12.8083C3.20811 20.3333 7.81644 26.7062 11.9873 30.7166C13.5331 32.2041 15.5164 32.9478 17.4998 32.9478C19.4831 32.9478 21.4664 32.2041 22.9977 30.7166C27.1685 26.7062 31.7769 20.3478 30.0706 12.8228ZM17.4998 20.1291C14.9623 20.1291 12.906 18.0728 12.906 15.5353C12.906 12.9978 14.9623 10.9416 17.4998 10.9416C20.0373 10.9416 22.0935 12.9978 22.0935 15.5353C22.0935 18.0728 20.0373 20.1291 17.4998 20.1291Z" fill="#2BADE2"/>
</svg>
