<svg width="25" height="25" viewBox="0 0 25 25" fill="none" xmlns="http://www.w3.org/2000/svg">
<path d="M12.5 2.2523C15.8376 2.2523 16.2329 2.265 17.551 2.32514C18.7698 2.38076 19.4316 2.5844 19.8721 2.75553C20.4556 2.98229 20.872 3.25321 21.3094 3.6906C21.7468 4.12799 22.0177 4.54444 22.2444 5.12786C22.4156 5.56837 22.6192 6.23024 22.6749 7.44893C22.735 8.76705 22.7477 9.16237 22.7477 12.5C22.7477 15.8377 22.735 16.233 22.6749 17.5511C22.6192 18.7698 22.4156 19.4317 22.2444 19.8722C22.0177 20.4556 21.7468 20.8721 21.3094 21.3095C20.872 21.7468 20.4556 22.0178 19.8721 22.2445C19.4316 22.4157 18.7698 22.6193 17.551 22.6749C16.2331 22.735 15.8378 22.7478 12.5 22.7478C9.16212 22.7478 8.7668 22.735 7.44893 22.6749C6.23019 22.6193 5.56832 22.4157 5.12786 22.2445C4.54439 22.0178 4.12794 21.7468 3.69055 21.3095C3.25316 20.8721 2.98224 20.4556 2.75553 19.8722C2.58435 19.4317 2.38071 18.7698 2.32509 17.5511C2.26495 16.233 2.25225 15.8377 2.25225 12.5C2.25225 9.16237 2.26495 8.76705 2.32509 7.44898C2.38071 6.23024 2.58435 5.56837 2.75553 5.12786C2.98224 4.54444 3.25316 4.12799 3.69055 3.6906C4.12794 3.25321 4.54439 2.98229 5.12786 2.75553C5.56832 2.5844 6.23019 2.38076 7.44888 2.32514C8.767 2.265 9.16232 2.2523 12.5 2.2523ZM12.5 0C9.10515 0 8.67952 0.0143895 7.34627 0.0752221C6.01574 0.135956 5.10712 0.347233 4.31198 0.656259C3.48999 0.975705 2.79289 1.40312 2.09798 2.09803C1.40307 2.79294 0.975655 3.49004 0.656209 4.31203C0.347183 5.10717 0.135906 6.01579 0.0751725 7.34632C0.0143398 8.67952 0 9.10521 0 12.5C0 15.8948 0.0143398 16.3205 0.0751725 17.6537C0.135906 18.9843 0.347183 19.8929 0.656209 20.688C0.975655 21.51 1.40307 22.2071 2.09798 22.902C2.79289 23.5969 3.48999 24.0243 4.31198 24.3438C5.10712 24.6528 6.01574 24.8641 7.34627 24.9248C8.67952 24.9857 9.10515 25 12.5 25C15.8948 25 16.3205 24.9857 17.6537 24.9248C18.9842 24.8641 19.8928 24.6528 20.688 24.3438C21.51 24.0243 22.2071 23.5969 22.902 22.902C23.5969 22.2071 24.0243 21.51 24.3437 20.688C24.6528 19.8929 24.864 18.9843 24.9248 17.6537C24.9856 16.3205 25 15.8948 25 12.5C25 9.10521 24.9856 8.67952 24.9248 7.34632C24.864 6.01579 24.6528 5.10717 24.3437 4.31203C24.0243 3.49004 23.5969 2.79294 22.902 2.09803C22.2071 1.40312 21.51 0.975705 20.688 0.656259C19.8928 0.347233 18.9842 0.135956 17.6537 0.0752221C16.3205 0.0143895 15.8948 0 12.5 0ZM12.5 6.08109C8.95491 6.08109 6.08104 8.95496 6.08104 12.5C6.08104 16.0451 8.95491 18.919 12.5 18.919C16.045 18.919 18.9189 16.0451 18.9189 12.5C18.9189 8.95496 16.045 6.08109 12.5 6.08109ZM12.5 16.6667C10.1988 16.6667 8.33328 14.8012 8.33328 12.5C8.33328 10.1989 10.1988 8.33333 12.5 8.33333C14.8011 8.33333 16.6667 10.1989 16.6667 12.5C16.6667 14.8012 14.8011 16.6667 12.5 16.6667ZM20.6725 5.82748C20.6725 6.65592 20.001 7.32751 19.1725 7.32751C18.3441 7.32751 17.6725 6.65592 17.6725 5.82748C17.6725 4.99905 18.3441 4.32751 19.1725 4.32751C20.001 4.32751 20.6725 4.99905 20.6725 5.82748Z" fill="#343973"/>
</svg>
