<svg width="30" height="30" viewBox="0 0 30 30" fill="none" xmlns="http://www.w3.org/2000/svg">
<path d="M29.4489 23.4997L22.6034 17.2757C22.2798 16.9816 21.8545 16.8247 21.4175 16.8382C20.9804 16.8517 20.5657 17.0346 20.2609 17.3481L16.231 21.4924C15.261 21.3072 13.3109 20.6993 11.3036 18.697C9.29625 16.688 8.68832 14.7328 8.50813 13.7696L12.6491 9.73807C12.963 9.43348 13.1461 9.0187 13.1597 8.58151C13.1732 8.14432 13.016 7.71902 12.7215 7.39562L6.4991 0.551835C6.20446 0.227423 5.79497 0.0306427 5.35759 0.00328682C4.92021 -0.0240691 4.48939 0.120154 4.15663 0.405327L0.502312 3.53926C0.211164 3.83146 0.0373877 4.22035 0.013947 4.63217C-0.0113133 5.05318 -0.492942 15.0258 7.24006 22.7622C13.9862 29.5066 22.4366 30 24.7639 30C25.1041 30 25.3129 29.9899 25.3685 29.9865C25.7803 29.9635 26.169 29.7889 26.4597 29.4965L29.592 25.8405C29.8783 25.5088 30.0236 25.0783 29.9969 24.641C29.9701 24.2036 29.7735 23.7941 29.4489 23.4997Z" fill="#333872"/>
</svg>
