<svg width="30" height="31" viewBox="0 0 30 31" fill="none" xmlns="http://www.w3.org/2000/svg">
<path d="M21.25 4.875H8.75C5 4.875 2.5 6.75 2.5 11.125V19.875C2.5 24.25 5 26.125 8.75 26.125H21.25C25 26.125 27.5 24.25 27.5 19.875V11.125C27.5 6.75 25 4.875 21.25 4.875ZM21.8375 12.4875L17.925 15.6125C17.1 16.275 16.05 16.6 15 16.6C13.95 16.6 12.8875 16.275 12.075 15.6125L8.1625 12.4875C7.7625 12.1625 7.7 11.5625 8.0125 11.1625C8.3375 10.7625 8.925 10.6875 9.325 11.0125L13.2375 14.1375C14.1875 14.9 15.8 14.9 16.75 14.1375L20.6625 11.0125C21.0625 10.6875 21.6625 10.75 21.975 11.1625C22.3 11.5625 22.2375 12.1625 21.8375 12.4875Z" fill="#333872"/>
</svg>
